<svg width="856" height="480" viewBox="0 0 856 480" fill="none" xmlns="http://www.w3.org/2000/svg">
<g clip-path="url(#clip0_701_2)">
<path opacity="0.1" d="M162.135 275.656C171.136 308.039 190.175 336.031 220.261 349.601C282.806 377.801 423.863 363.257 529.139 346.562C583.595 337.927 631.461 314.097 666.231 280.562L162.135 275.656Z" fill="#3F3D56"/>
<path opacity="0.1" d="M714.195 123.231L705.8 117.91C703.059 117.91 702.173 117.133 702.173 114.823C702.173 112.512 653.691 114.823 656.432 114.823L693.882 113.086C691.135 113.086 689.441 114.919 689.441 112.604C689.441 110.288 694.504 112.604 697.25 112.604C694.504 112.604 702.95 115.681 708.909 113.086C714.35 113.086 703.986 105.368 698.545 102.209L689.441 98.007C682.751 95.3876 674.931 93.5256 665.92 92.5464C583.709 83.6561 554.359 89.5363 544.005 95.5806C531.1 103.208 516.765 108.501 501.752 111.181C451.032 119.994 356.177 130.597 270.204 107.804C227.474 96.4537 195.714 115.609 176.681 147.63H724.227C723.512 138.325 721.372 129.728 717.444 122.208C716.514 122.877 715.37 123.237 714.195 123.231Z" fill="#3F3D56"/>
<path opacity="0.1" d="M157.234 208.065C155.016 226.898 155.77 245.932 159.473 264.561L666.616 280.186C680.576 266.707 692.437 251.473 701.853 234.929L157.234 208.065ZM357.816 248.368H347.83C350.576 248.368 352.825 250.264 352.825 252.574C352.825 254.885 350.576 256.776 347.83 256.776H290.067C287.326 256.776 285.077 254.885 285.077 252.574C285.077 250.264 287.326 248.368 290.067 248.368H300.058C297.312 248.368 295.068 246.477 295.068 244.166C295.068 241.856 297.312 239.96 300.058 239.96H292.922C290.176 239.96 287.927 238.069 287.927 235.758C287.927 233.448 290.176 231.552 292.922 231.552H350.685C353.432 231.552 355.675 233.443 355.675 235.758C355.675 238.074 353.432 239.96 350.685 239.96H357.816C360.562 239.96 362.806 241.851 362.806 244.166C362.806 246.482 360.562 248.368 357.816 248.368Z" fill="#3F3D56"/>
<path opacity="0.1" d="M724.248 147.917L170.572 159.252C163.835 173.835 159.368 190.323 157.311 207.409H714.547C718.174 197.412 720.865 187.143 722.59 176.715C724.253 166.676 724.916 156.966 724.248 147.917ZM269.727 185.084H259.742C262.488 185.084 264.737 186.98 264.737 189.29C264.737 191.601 262.488 193.497 259.742 193.497H201.979C199.238 193.497 196.989 191.601 196.989 189.29C196.989 186.98 199.238 185.084 201.979 185.084H211.97C209.223 185.084 206.98 183.193 206.98 180.883C206.98 178.572 209.223 176.676 211.97 176.676H204.834C202.088 176.676 199.839 174.785 199.839 172.475C199.839 170.164 202.088 168.268 204.834 168.268H262.597C265.343 168.268 267.587 170.159 267.587 172.475C267.587 174.79 265.343 176.676 262.597 176.676H269.727C272.474 176.676 274.717 178.572 274.717 180.883C274.717 183.193 272.474 185.084 269.727 185.084Z" fill="#3F3D56"/>
<path opacity="0.1" d="M438.455 464.779C566.376 464.779 670.076 455.898 670.076 444.944C670.076 433.989 566.376 425.108 438.455 425.108C310.535 425.108 206.834 433.989 206.834 444.944C206.834 455.898 310.535 464.779 438.455 464.779Z" fill="#3F3D56"/>
<g opacity="0.1">
<path opacity="0.1" d="M593.731 225.074C593.838 224.885 593.932 224.69 594.011 224.49C594.596 222.976 594.337 221.311 594.343 219.7C594.342 219.163 594.396 218.627 594.503 218.099C594.025 219.052 593.793 220.096 593.825 221.147C593.819 222.445 593.985 223.805 593.731 225.074Z" fill="black"/>
<path opacity="0.1" d="M657.614 297.928C655.463 299.419 652.276 299.028 650.105 297.557C647.934 296.086 646.612 293.775 645.695 291.426C644.55 288.58 643.7 285.367 641.089 283.539C640.151 282.883 639.016 282.454 638.099 281.797C636.026 280.321 634.989 277.885 634.243 275.551C633.285 272.608 632.528 269.584 631.134 266.805C629.74 264.026 627.553 261.441 624.538 260.172C621.719 258.99 618.464 259.068 615.547 258.108C610.52 256.458 606.805 252.526 601.815 250.674C600.217 250.047 598.703 249.251 597.301 248.301C594.845 246.723 594.192 245.831 593.83 243.048C593.311 238.87 588.751 235.228 589.461 231.292C589.346 231.505 589.244 231.724 589.156 231.948C587.601 236.193 592.783 240.038 593.301 244.49C593.638 247.273 594.337 248.166 596.773 249.743C598.174 250.693 599.689 251.49 601.286 252.116C606.277 253.969 609.992 257.905 615.018 259.55C617.936 260.515 621.19 260.433 624.009 261.615C627.025 262.883 629.191 265.474 630.606 268.247C632.02 271.021 632.777 274.036 633.715 276.993C634.476 279.328 635.477 281.764 637.57 283.24C638.508 283.896 639.643 284.325 640.56 284.981C643.151 286.809 644.021 290.022 645.167 292.868C646.11 295.208 647.431 297.523 649.602 298.99C651.774 300.456 654.96 300.852 657.111 299.361C658.484 298.396 659.184 296.925 659.645 295.348C659.235 296.365 658.532 297.258 657.614 297.928Z" fill="black"/>
<path opacity="0.1" d="M668.263 283.461C668.065 283.807 667.978 284.199 668.014 284.59C669.185 283.515 671.828 284.146 672.75 282.762C672.964 282.42 673.048 282.02 672.989 281.628C671.786 282.69 669.144 282.058 668.263 283.461Z" fill="black"/>
<path opacity="0.1" d="M660.65 291.71C660.552 292.193 660.453 292.709 660.329 293.21C663.5 294.132 667.164 291.763 667.682 288.772C666.423 291.073 663.314 292.612 660.65 291.71Z" fill="black"/>
</g>
<path opacity="0.1" d="M598.897 453.622C597.39 453.675 588.819 453.622 588.819 453.622C588.693 453.5 588.576 453.371 588.466 453.236C590.658 452.541 595.395 451.499 598.897 453.622Z" fill="black"/>
<path opacity="0.1" d="M623.413 453.622C621.905 453.675 613.334 453.622 613.334 453.622C613.208 453.5 613.091 453.371 612.981 453.236C615.163 452.541 619.899 451.499 623.413 453.622Z" fill="black"/>
<path opacity="0.1" d="M584.414 258.72C584.414 258.72 585.021 263.226 582.948 264.35C580.875 265.473 584.414 258.72 584.414 258.72Z" fill="black"/>
<path opacity="0.1" d="M628.372 293.615C628.372 293.615 633.295 286.862 633.99 288.792C634.684 290.721 628.372 293.615 628.372 293.615Z" fill="black"/>
<path opacity="0.1" d="M628.719 295.863C628.719 295.863 633.575 290.316 634.041 292.487C634.508 294.657 628.719 295.863 628.719 295.863Z" fill="black"/>
<path opacity="0.1" d="M612.92 257.577C612.92 257.577 620.21 258.011 620.257 258.976C620.304 259.94 612.92 257.577 612.92 257.577Z" fill="black"/>
<path opacity="0.1" d="M595.208 253.462C595.208 253.462 587.917 253.896 587.87 254.861C587.824 255.826 595.208 253.462 595.208 253.462Z" fill="black"/>
<path opacity="0.1" d="M623.071 273.187C622.999 273.139 622.926 273.1 622.853 273.057C624.719 274.62 624.408 278.035 622.118 280.852C619.827 283.669 616.35 284.841 614.236 283.577C614.303 283.63 614.36 283.688 614.433 283.741C616.506 285.217 620.133 284.06 622.527 281.146C624.921 278.233 625.154 274.668 623.071 273.187Z" fill="black"/>
<path opacity="0.1" d="M585.487 254.374L584.818 255.339L583.113 254.495L584.01 253.211C584.603 253.472 585.112 253.873 585.487 254.374Z" fill="black"/>
<path d="M574.657 290.075C574.657 290.075 576.175 283.428 574.138 281.315C572.102 279.202 572.755 268.126 575.864 268.368C578.973 268.609 583.637 277.369 582.86 279.221C582.082 281.074 579.144 290.557 579.144 290.557L574.657 290.075Z" fill="#FBBEBE"/>
<path d="M576.952 295.348C579.528 295.348 581.616 294.03 581.616 292.405C581.616 290.78 579.528 289.462 576.952 289.462C574.377 289.462 572.289 290.78 572.289 292.405C572.289 294.03 574.377 295.348 576.952 295.348Z" fill="#575A89"/>
<path d="M424.936 446.198C513.225 446.198 584.797 377.333 584.797 292.383C584.797 207.433 513.225 138.568 424.936 138.568C336.646 138.568 265.074 207.433 265.074 292.383C265.074 377.333 336.646 446.198 424.936 446.198Z" fill="#5D54DC"/>
<path d="M508.816 362.166C508.816 385.658 469.143 364.173 426.61 364.173C384.077 364.173 341.056 384.771 341.056 361.279C341.056 347.883 354.768 329.253 374.438 315.723C389.258 305.525 407.457 298.222 425.739 298.222C444.539 298.222 462.956 306.128 477.646 316.982C496.187 330.667 508.816 349.055 508.816 362.166Z" fill="#3F3D56"/>
<path d="M477.641 316.972C455.032 313.803 414.142 309.939 374.438 315.713C389.258 305.516 407.457 298.212 425.739 298.212C444.534 298.212 462.95 306.119 477.641 316.972Z" fill="#F6F8FB"/>
<path opacity="0.05" d="M341.056 182.334C341.056 182.334 292.901 210.993 293.295 255.821C293.688 300.648 341.056 182.334 341.056 182.334Z" fill="black"/>
<path opacity="0.1" d="M180.236 476.655C187.943 476.655 194.191 475.673 194.191 474.461C194.191 473.248 187.943 472.266 180.236 472.266C172.529 472.266 166.281 473.248 166.281 474.461C166.281 475.673 172.529 476.655 180.236 476.655Z" fill="#3F3D56"/>
<path opacity="0.1" d="M261.245 479.41C268.952 479.41 275.199 478.428 275.199 477.215C275.199 476.003 268.952 475.021 261.245 475.021C253.537 475.021 247.29 476.003 247.29 477.215C247.29 478.428 253.537 479.41 261.245 479.41Z" fill="#3F3D56"/>
<path opacity="0.1" d="M186.749 415.663C186.997 415.998 187.192 416.363 187.33 416.748C192.315 422.199 194.968 427.288 190.18 427.414C185.713 427.535 180.334 434.963 179.075 436.84C179.119 436.985 179.171 437.128 179.231 437.269C179.231 437.269 185.506 427.554 190.631 427.414C195.756 427.274 192.367 421.505 186.749 415.663Z" fill="black"/>
<path d="M368.101 267.87C371.142 267.711 385.46 266.708 394.554 261.879C396.015 261.079 397.665 260.627 399.358 260.562C402.249 260.485 405.576 261.609 403.446 267.899C399.995 278.189 379.957 289.766 367.52 289.124C355.56 288.507 341.372 284.021 332.003 268.247C331.106 266.729 330.664 265.014 330.724 263.283C330.832 260.099 332.076 256.11 338.496 260.557C347.171 266.563 363.629 267.702 366.929 267.87C367.32 267.89 367.71 267.89 368.101 267.87Z" fill="#3F3D56"/>
<path d="M483.139 267.87C486.181 267.711 500.498 266.708 509.593 261.879C511.053 261.079 512.703 260.627 514.396 260.562C517.288 260.485 520.615 261.609 518.485 267.899C515.034 278.189 494.995 289.766 482.559 289.124C470.599 288.507 456.411 284.021 447.042 268.247C446.144 266.729 445.702 265.014 445.762 263.283C445.871 260.099 447.114 256.11 453.535 260.557C462.209 266.563 478.667 267.702 481.968 267.87C482.358 267.89 482.749 267.89 483.139 267.87Z" fill="#3F3D56"/>
</g>
<path d="M85.1 427V374.83H108.04V351.15H11.84V302.68L111.37 184.65H190.55V304.9L231.62 304.53V351.15H190.55V374.83H212.38V427H85.1ZM108.04 304.53V262.35L74 304.53H108.04ZM687.651 427V374.83H710.591V351.15H614.391V302.68L713.921 184.65H793.101V304.9L834.171 304.53V351.15H793.101V374.83H814.931V427H687.651ZM710.591 304.53V262.35L676.551 304.53H710.591Z" fill="#3F3D56"/>
<path d="M85.1 427H80.1C80.1 429.761 82.3386 432 85.1 432V427ZM85.1 374.83V369.83C82.3386 369.83 80.1 372.069 80.1 374.83H85.1ZM108.04 374.83V379.83C110.801 379.83 113.04 377.591 113.04 374.83H108.04ZM108.04 351.15H113.04C113.04 348.389 110.801 346.15 108.04 346.15V351.15ZM11.84 351.15H6.84C6.84 353.911 9.07858 356.15 11.84 356.15V351.15ZM11.84 302.68L8.01762 299.457C7.25712 300.359 6.84 301.5 6.84 302.68H11.84ZM111.37 184.65V179.65C109.896 179.65 108.498 180.3 107.548 181.427L111.37 184.65ZM190.55 184.65H195.55C195.55 181.889 193.311 179.65 190.55 179.65V184.65ZM190.55 304.9H185.55C185.55 306.234 186.083 307.512 187.03 308.451C187.978 309.39 189.261 309.912 190.595 309.9L190.55 304.9ZM231.62 304.53H236.62C236.62 303.196 236.087 301.918 235.14 300.979C234.192 300.04 232.909 299.518 231.575 299.53L231.62 304.53ZM231.62 351.15V356.15C234.381 356.15 236.62 353.911 236.62 351.15H231.62ZM190.55 351.15V346.15C187.789 346.15 185.55 348.389 185.55 351.15H190.55ZM190.55 374.83H185.55C185.55 377.591 187.789 379.83 190.55 379.83V374.83ZM212.38 374.83H217.38C217.38 372.069 215.141 369.83 212.38 369.83V374.83ZM212.38 427V432C215.141 432 217.38 429.761 217.38 427H212.38ZM108.04 304.53V309.53C110.801 309.53 113.04 307.291 113.04 304.53H108.04ZM108.04 262.35H113.04C113.04 260.23 111.704 258.341 109.705 257.635C107.707 256.93 105.48 257.56 104.149 259.21L108.04 262.35ZM74 304.53L70.109 301.39C68.8995 302.889 68.6583 304.949 69.4889 306.686C70.3194 308.424 72.0741 309.53 74 309.53V304.53ZM90.1 427V374.83H80.1V427H90.1ZM85.1 379.83H108.04V369.83H85.1V379.83ZM113.04 374.83V351.15H103.04V374.83H113.04ZM108.04 346.15H11.84V356.15H108.04V346.15ZM16.84 351.15V302.68H6.84V351.15H16.84ZM15.6624 305.903L115.192 187.873L107.548 181.427L8.01762 299.457L15.6624 305.903ZM111.37 189.65H190.55V179.65H111.37V189.65ZM185.55 184.65V304.9H195.55V184.65H185.55ZM190.595 309.9L231.665 309.53L231.575 299.53L190.505 299.9L190.595 309.9ZM226.62 304.53V351.15H236.62V304.53H226.62ZM231.62 346.15H190.55V356.15H231.62V346.15ZM185.55 351.15V374.83H195.55V351.15H185.55ZM190.55 379.83H212.38V369.83H190.55V379.83ZM207.38 374.83V427H217.38V374.83H207.38ZM212.38 422H85.1V432H212.38V422ZM113.04 304.53V262.35H103.04V304.53H113.04ZM104.149 259.21L70.109 301.39L77.891 307.67L111.931 265.49L104.149 259.21ZM74 309.53H108.04V299.53H74V309.53ZM687.651 427H682.651C682.651 429.761 684.889 432 687.651 432V427ZM687.651 374.83V369.83C684.889 369.83 682.651 372.069 682.651 374.83H687.651ZM710.591 374.83V379.83C713.352 379.83 715.591 377.591 715.591 374.83H710.591ZM710.591 351.15H715.591C715.591 348.389 713.352 346.15 710.591 346.15V351.15ZM614.391 351.15H609.391C609.391 353.911 611.629 356.15 614.391 356.15V351.15ZM614.391 302.68L610.568 299.457C609.808 300.359 609.391 301.5 609.391 302.68H614.391ZM713.921 184.65V179.65C712.447 179.65 711.048 180.3 710.098 181.427L713.921 184.65ZM793.101 184.65H798.101C798.101 181.889 795.862 179.65 793.101 179.65V184.65ZM793.101 304.9H788.101C788.101 306.234 788.634 307.512 789.581 308.451C790.529 309.39 791.812 309.912 793.146 309.9L793.101 304.9ZM834.171 304.53H839.171C839.171 303.196 838.638 301.918 837.69 300.979C836.743 300.04 835.46 299.518 834.126 299.53L834.171 304.53ZM834.171 351.15V356.15C836.932 356.15 839.171 353.911 839.171 351.15H834.171ZM793.101 351.15V346.15C790.339 346.15 788.101 348.389 788.101 351.15H793.101ZM793.101 374.83H788.101C788.101 377.591 790.339 379.83 793.101 379.83V374.83ZM814.931 374.83H819.931C819.931 372.069 817.692 369.83 814.931 369.83V374.83ZM814.931 427V432C817.692 432 819.931 429.761 819.931 427H814.931ZM710.591 304.53V309.53C713.352 309.53 715.591 307.291 715.591 304.53H710.591ZM710.591 262.35H715.591C715.591 260.23 714.254 258.341 712.256 257.635C710.257 256.93 708.031 257.56 706.7 259.21L710.591 262.35ZM676.551 304.53L672.66 301.39C671.45 302.889 671.209 304.949 672.04 306.686C672.87 308.424 674.625 309.53 676.551 309.53V304.53ZM692.651 427V374.83H682.651V427H692.651ZM687.651 379.83H710.591V369.83H687.651V379.83ZM715.591 374.83V351.15H705.591V374.83H715.591ZM710.591 346.15H614.391V356.15H710.591V346.15ZM619.391 351.15V302.68H609.391V351.15H619.391ZM618.213 305.903L717.743 187.873L710.098 181.427L610.568 299.457L618.213 305.903ZM713.921 189.65H793.101V179.65H713.921V189.65ZM788.101 184.65V304.9H798.101V184.65H788.101ZM793.146 309.9L834.216 309.53L834.126 299.53L793.056 299.9L793.146 309.9ZM829.171 304.53V351.15H839.171V304.53H829.171ZM834.171 346.15H793.101V356.15H834.171V346.15ZM788.101 351.15V374.83H798.101V351.15H788.101ZM793.101 379.83H814.931V369.83H793.101V379.83ZM809.931 374.83V427H819.931V374.83H809.931ZM814.931 422H687.651V432H814.931V422ZM715.591 304.53V262.35H705.591V304.53H715.591ZM706.7 259.21L672.66 301.39L680.442 307.67L714.482 265.49L706.7 259.21ZM676.551 309.53H710.591V299.53H676.551V309.53Z" fill="#3F3D56"/>
<defs>
<clipPath id="clip0_701_2">
<rect width="570.02" height="391.41" fill="white" transform="translate(156 88)"/>
</clipPath>
</defs>
</svg>
