<svg width="35" height="35" viewBox="0 0 35 35" fill="none" xmlns="http://www.w3.org/2000/svg">
<path d="M29.2548 26.2956C27.4404 24.762 26.4 22.5204 26.4 20.1456V16.8C26.4 12.5772 23.2632 9.0816 19.2 8.496V7.2C19.2 6.5364 18.6624 6 18 6C17.3376 6 16.8 6.5364 16.8 7.2V8.496C12.7356 9.0816 9.6 12.5772 9.6 16.8V20.1456C9.6 22.5204 8.5596 24.762 6.7344 26.3052C6.2676 26.7048 6 27.2856 6 27.9C6 29.058 6.942 30 8.1 30H27.9C29.058 30 30 29.058 30 27.9C30 27.2856 29.7324 26.7048 29.2548 26.2956Z" fill="black"/>
<path d="M18 34.8C20.1732 34.8 21.9912 33.2508 22.4088 31.2H13.5912C14.0088 33.2508 15.8268 34.8 18 34.8Z" fill="black"/>
</svg>
