<svg width="255" height="304" viewBox="0 0 255 304" fill="none" xmlns="http://www.w3.org/2000/svg">
<path d="M106 49.5889H22V112.114H106V49.5889Z" fill="#C4C4C4"/>
<path d="M112 106.723H28V43.1206H112V106.723ZM28.56 105.975H111.44V43.8689H28.56V105.975Z" fill="#3F3D56"/>
<path d="M222 16.1704H143V75.4612H222V16.1704Z" fill="#DDDAEB"/>
<path d="M228 70.0711H148V10.7803H228V70.0711ZM148.533 69.3735H227.467V11.4778H148.533V69.3735Z" fill="#3F3D56"/>
<path d="M129.295 194.843C129.325 194.008 129.493 193.191 129.788 192.451C130.083 191.711 130.496 191.065 131.001 190.56C131.505 190.054 132.087 189.7 132.705 189.523C133.324 189.346 133.965 189.351 134.582 189.537L140.309 178.877L146.062 181.894L137.815 196.797C137.51 198.146 136.841 199.301 135.935 200.042C135.028 200.783 133.948 201.059 132.898 200.818C131.848 200.577 130.901 199.836 130.237 198.735C129.573 197.634 129.238 196.249 129.295 194.843L129.295 194.843Z" fill="#A0616A"/>
<path d="M135.577 185.675L145.759 163.057L141.611 148.446L147.261 128.545L147.469 128.663C147.606 128.741 150.816 130.633 151.292 137.409L157.785 164.361L140.456 194.053L135.577 185.675Z" fill="#CACACA"/>
<path d="M80.2773 102.523C80.9055 102.627 81.5088 102.912 82.0446 103.357C82.5805 103.802 83.0359 104.397 83.3789 105.1C83.7218 105.803 83.9438 106.597 84.0294 107.425C84.115 108.254 84.0619 109.097 83.8741 109.896L91.4778 118.261L88.7559 125.604L78.1435 113.591C77.1488 113.086 76.329 112.115 75.8397 110.865C75.3503 109.614 75.2253 108.17 75.4883 106.805C75.7513 105.441 76.3841 104.252 77.2667 103.462C78.1494 102.673 79.2206 102.339 80.2773 102.523Z" fill="#A0616A"/>
<path d="M86.7116 111.504L102.998 126.661L114.348 122.328L128.933 131.307L128.828 131.572C128.759 131.746 127.082 135.827 121.931 135.93L101.084 142.396L80.0106 117.282L86.7116 111.504Z" fill="#CACACA"/>
<path d="M116.513 295.821H110.851L108.157 266.976L116.514 266.977L116.513 295.821Z" fill="#A0616A"/>
<path d="M105.139 293.684H117.726V302.765H99.9312V300.562C99.9312 298.738 100.48 296.988 101.456 295.699C102.433 294.409 103.757 293.684 105.139 293.684Z" fill="#2F2E41"/>
<path d="M139.143 295.821H133.48L130.787 266.976L139.143 266.977L139.143 295.821Z" fill="#A0616A"/>
<path d="M127.768 293.684H140.356V302.765H122.561V300.562C122.561 298.738 123.11 296.988 124.086 295.699C125.063 294.409 126.387 293.684 127.768 293.684Z" fill="#2F2E41"/>
<path d="M141.156 190.535L140.694 233.234L140.233 289.352L130.072 288.132L124.992 210.664L118.526 288.132H108.037L106.981 210.054L110.675 192.975L141.156 190.535Z" fill="#2F2E41"/>
<path d="M109.663 193.235L108.115 193.147L115.304 140.835L112.361 125.024C112.208 124.201 112.288 123.333 112.588 122.584C112.887 121.834 113.384 121.256 113.984 120.958L119.281 118.335L121.152 111.539L135.916 113.64L136.279 118.952C137.878 119.629 151.053 125.424 150.144 132.027C149.247 138.545 143.949 159.049 143.68 160.089L142.752 189.495L142.638 189.57C142.501 189.661 132.325 196.27 121.27 196.268C117.377 196.268 113.373 195.448 109.663 193.235Z" fill="#CACACA"/>
<path d="M137.282 100.87C140.098 94.0658 138.205 85.5352 133.054 81.816C127.903 78.0967 121.444 80.5972 118.628 87.4009C115.812 94.2047 117.705 102.735 122.856 106.455C128.008 110.174 134.466 107.673 137.282 100.87Z" fill="#A0616A"/>
<path d="M136.565 107.726C134.54 110.576 130.777 109.046 130.513 105.153C130.493 104.85 130.494 104.546 130.518 104.244C130.654 102.519 131.409 100.954 131.228 99.1324C131.187 98.6792 131.059 98.2473 130.856 97.8776C129.242 95.0224 125.453 99.1546 123.929 96.5699C122.995 94.9851 124.093 92.4898 123.376 90.7184C122.43 88.3805 119.628 89.5338 117.87 88.2535C115.915 86.8289 116.032 82.8664 117.319 80.4561C118.889 77.5167 121.641 75.9483 124.359 75.7222C127.077 75.4962 129.776 76.4666 132.314 77.7728C135.197 79.2568 138.056 81.3077 139.83 84.6561C141.988 88.7281 142.195 94.2026 141.116 98.964C140.46 101.86 138.22 105.399 136.565 107.726Z" fill="#2F2E41"/>
<path d="M65.8503 90.7317C63.2275 90.7317 60.9102 90.5161 58.8982 90.0848C56.8862 89.6319 54.9641 88.9095 53.1317 87.9175C52.3772 87.5293 52 87.0872 52 86.5912C52 86.2031 52.2515 85.858 52.7545 85.5561C53.2575 85.2326 53.8503 85.0709 54.5329 85.0709C55.1437 85.0709 55.6647 85.1895 56.0958 85.4267C57.5329 86.2246 59.006 86.8177 60.515 87.2058C62.0599 87.5724 63.8024 87.7557 65.7425 87.7557C68.006 87.7557 69.9102 87.4431 71.4551 86.8177C73.0359 86.1923 73.8263 85.4051 73.8263 84.4563C73.7904 83.3349 73 82.4723 71.4551 81.8685C69.9461 81.2431 67.6287 80.7255 64.503 80.3158C60.8024 79.8629 57.9461 79.1189 55.9341 78.0838C53.9581 77.0487 52.9701 75.6146 52.9701 73.7816C52.9701 72.5092 53.5269 71.3986 54.6407 70.4497C55.7545 69.4793 57.2994 68.7353 59.2754 68.2177C61.2515 67.7002 63.479 67.4414 65.9581 67.4414C68.1856 67.4414 70.2874 67.6571 72.2635 68.0884C74.2395 68.5197 75.8383 69.0911 77.0599 69.8028C77.8862 70.2341 78.2994 70.6977 78.2994 71.1937C78.2994 71.5819 78.0479 71.9269 77.5449 72.2289C77.0778 72.5308 76.503 72.6817 75.8204 72.6817C75.3174 72.6817 74.9042 72.5955 74.5808 72.4229C73.6467 71.8623 72.3533 71.3878 70.7006 70.9997C69.0479 70.6115 67.4671 70.4174 65.9581 70.4174C63.5509 70.4174 61.6287 70.7193 60.1916 71.3231C58.7904 71.9054 58.0898 72.6817 58.0898 73.6522C58.0898 74.7088 58.7904 75.5175 60.1916 76.0782C61.6287 76.6389 63.7485 77.1134 66.5509 77.5015C69.3533 77.8681 71.6347 78.2994 73.3952 78.7954C75.1916 79.2914 76.5749 79.9815 77.5449 80.8657C78.515 81.7499 79 82.9036 79 84.3269C79 85.5777 78.4072 86.6883 77.2216 87.6587C76.0719 88.6291 74.491 89.3839 72.479 89.923C70.4671 90.4622 68.2575 90.7317 65.8503 90.7317Z" fill="#3A3A3A"/>
<path d="M65.2903 64V93" stroke="#3A3A3A" stroke-width="3" stroke-linecap="round"/>
<path d="M172 38.2358H199M172 46.4809H199" stroke="#3A3A3A" stroke-width="3" stroke-linecap="round" stroke-linejoin="round"/>
<path d="M173.173 57C173.173 57.8284 173.845 58.5 174.673 58.5C175.502 58.5 176.173 57.8284 176.173 57H173.173ZM195.421 28C195.421 27.1716 194.749 26.5 193.921 26.5C193.092 26.5 192.421 27.1716 192.421 28H195.421ZM192.088 54.238L190.838 55.0674L192.088 54.238ZM176.173 57V31.315H173.173V57H176.173ZM175.257 31.5915L190.838 55.0674L193.337 53.4085L177.756 29.9326L175.257 31.5915ZM195.421 53.685V28H192.421V53.685H195.421ZM190.838 55.0674C192.207 57.1306 195.421 56.1611 195.421 53.685H192.421C192.421 53.5931 192.456 53.4748 192.536 53.3732C192.609 53.2815 192.697 53.2303 192.776 53.2063C192.856 53.1823 192.958 53.1763 193.069 53.2125C193.192 53.2526 193.287 53.3319 193.337 53.4085L190.838 55.0674ZM176.173 31.315C176.173 31.4069 176.138 31.5252 176.058 31.6268C175.985 31.7185 175.897 31.7697 175.818 31.7937C175.738 31.8177 175.636 31.8237 175.525 31.7875C175.402 31.7474 175.307 31.6681 175.257 31.5915L177.756 29.9326C176.387 27.8694 173.173 28.8389 173.173 31.315H176.173Z" fill="#3A3A3A"/>
</svg>
