<svg width="32" height="61" viewBox="0 0 32 61" fill="none" xmlns="http://www.w3.org/2000/svg">
<path d="M17.7674 52.1216C14.978 52.1216 12.5134 51.7293 10.3736 50.9446C8.23379 50.1208 6.1895 48.8067 4.24077 47.0021C3.43834 46.2961 3.03711 45.4919 3.03711 44.5894C3.03711 43.8834 3.30457 43.2557 3.83955 42.7064C4.3745 42.1179 5.00496 41.8239 5.73098 41.8239C6.38058 41.8239 6.93462 42.0396 7.39315 42.4711C8.9216 43.9226 10.4883 45.0013 12.0931 45.7076C13.7362 46.3745 15.5894 46.708 17.6528 46.708C20.0601 46.708 22.0853 46.1391 23.7284 45.0013C25.4096 43.8638 26.2503 42.4319 26.2503 40.7059C26.2121 38.666 25.3714 37.0967 23.7284 35.9984C22.1235 34.8605 19.6589 33.9192 16.3345 33.1737C12.3988 32.3499 9.36102 30.9966 7.22122 29.1136C5.11962 27.2306 4.0688 24.6218 4.0688 21.2873C4.0688 18.9728 4.66109 16.9525 5.8456 15.2264C7.03014 13.4611 8.67322 12.1077 10.7748 11.1662C12.8764 10.2247 15.2455 9.75391 17.8821 9.75391C20.2511 9.75391 22.4865 10.1462 24.5881 10.9308C26.6897 11.7154 28.3901 12.7549 29.6892 14.0495C30.5681 14.8341 31.0075 15.6775 31.0075 16.5798C31.0075 17.2859 30.7401 17.9136 30.2051 18.4628C29.7084 19.012 29.097 19.2866 28.371 19.2866C27.836 19.2866 27.3966 19.1297 27.0527 18.8159C26.0592 17.7959 24.6836 16.9329 22.9259 16.2267C21.1682 15.5206 19.4869 15.1676 17.8821 15.1676C15.3219 15.1676 13.2776 15.7168 11.7492 16.8152C10.259 17.8744 9.51385 19.2866 9.51385 21.0519C9.51385 22.9742 10.259 24.4453 11.7492 25.4652C13.2776 26.4852 15.5321 27.3482 18.5125 28.0544C21.493 28.7213 23.9194 29.5059 25.7917 30.4081C27.7023 31.3104 29.1734 32.5657 30.2051 34.1741C31.2368 35.7826 31.7526 37.8813 31.7526 40.4703C31.7526 42.7456 31.1221 44.766 29.8612 46.5314C28.6384 48.2966 26.9572 49.6697 24.8173 50.6506C22.6775 51.631 20.3276 52.1216 17.7674 52.1216Z" fill="#F8F8F8"/>
<path d="M17.3949 4.66986V57.2058" stroke="#F8F8F8" stroke-width="7" stroke-linecap="round"/>
</svg>
