<svg width="203" height="302" viewBox="0 0 203 302" fill="none" xmlns="http://www.w3.org/2000/svg">
<path d="M137.087 290.783L121.656 279.413L141.756 286.056C154.383 272.132 163.633 252.84 163.633 252.84C163.633 252.84 129.814 229.002 108.981 235.363C88.149 241.724 84.1512 258.241 88.1925 275.875C92.2337 293.509 102.784 305.584 123.616 299.223C128.253 297.807 132.807 294.721 137.087 290.783Z" fill="#F2F2F2"/>
<path d="M120.122 275.746L119.095 276.059C107.143 279.633 97.2973 280.153 89.6948 277.596C89.5834 277.561 89.4758 277.519 89.3644 277.484L89.5169 276.891L89.6696 276.323C97.91 279.219 108.329 277.953 118.755 274.838C119.092 274.742 119.434 274.643 119.773 274.534C124.176 273.17 128.563 271.498 132.78 269.677C133.108 269.539 133.439 269.394 133.77 269.249C139.325 266.812 144.556 264.147 149.065 261.678C149.384 261.505 149.702 261.326 150.015 261.149C157.632 256.934 163.03 253.358 164.222 252.554C164.369 252.459 164.448 252.404 164.467 252.392L164.732 252.907L164.739 252.911L165.005 253.433C164.986 253.445 164.719 253.633 164.218 253.962C162.349 255.205 157.258 258.504 150.417 262.307C150.108 262.477 149.789 262.656 149.47 262.829C145.813 264.837 141.699 266.966 137.333 268.99C136.237 269.5 135.152 269.988 134.079 270.454C133.749 270.605 133.418 270.75 133.09 270.888C128.532 272.857 124.209 274.477 120.122 275.746Z" fill="white"/>
<path d="M150.417 262.308C150.281 261.928 150.144 261.543 150.015 261.149C149.665 260.08 149.363 258.99 149.109 257.885C148.024 253.176 147.869 248.246 148.653 243.458C148.327 243.294 148.002 243.13 147.669 242.961C146.803 248.01 146.948 253.221 148.093 258.195C148.363 259.375 148.688 260.538 149.065 261.678C149.192 262.066 149.329 262.451 149.47 262.829C150.617 265.951 152.168 268.854 154.07 271.438C154.292 271.101 154.51 270.771 154.724 270.448C152.949 267.994 151.497 265.251 150.417 262.308Z" fill="white"/>
<path d="M134.079 270.455C133.966 270.056 133.863 269.654 133.77 269.249C133.737 269.128 133.707 268.999 133.679 268.875C132.509 263.771 132.426 258.416 133.436 253.267C134.447 248.117 136.521 243.326 139.482 239.302C139.129 239.159 138.775 239.016 138.417 238.88C135.442 243.041 133.367 247.96 132.366 253.23C131.366 258.5 131.467 263.97 132.662 269.186C132.7 269.35 132.737 269.514 132.78 269.677C132.879 270.086 132.982 270.488 133.09 270.888C134.804 277.069 138.024 282.548 142.364 286.672C142.621 286.393 142.878 286.113 143.134 285.828C138.884 281.83 135.737 276.487 134.079 270.455Z" fill="white"/>
<path d="M120.122 275.746C119.997 275.344 119.883 274.94 119.773 274.534C119.657 274.098 119.546 273.661 119.445 273.221C117.88 266.36 118.283 259.099 120.592 252.524C122.901 245.949 126.994 240.415 132.256 236.75C131.784 236.611 131.317 236.471 130.847 236.345C125.654 240.25 121.659 245.945 119.429 252.621C117.2 259.296 116.85 266.613 118.428 273.532C118.529 273.972 118.635 274.41 118.755 274.838C118.861 275.252 118.975 275.656 119.095 276.059C121.558 284.184 126.605 290.925 133.212 294.916C133.56 294.678 133.899 294.424 134.243 294.168C127.639 290.381 122.574 283.773 120.122 275.746Z" fill="white"/>
<path d="M99.7042 299.805L23.3951 264.35C18.8223 262.218 15.1687 258.08 13.2359 252.843C11.3031 247.606 11.2489 241.697 13.0853 236.414L90.8339 13.4544C92.6805 8.17595 96.2656 3.9586 100.803 1.72754C105.34 -0.50353 110.458 -0.566109 115.035 1.55353L191.344 37.0088C195.917 39.1404 199.571 43.2787 201.503 48.5159C203.436 53.753 203.49 59.6613 201.654 64.9445L123.905 287.904C122.059 293.183 118.474 297.4 113.937 299.631C109.4 301.862 104.281 301.925 99.7042 299.805Z" fill="#3F3D56"/>
<path d="M188.334 42.7956L179.84 38.849C179.082 38.4977 178.234 38.508 177.482 38.8777C176.73 39.2474 176.136 39.9463 175.83 40.821C175.205 42.6094 173.99 44.0383 172.453 44.7942C170.916 45.55 169.182 45.571 167.631 44.8526L126.089 25.5508C124.539 24.829 123.301 23.4271 122.647 21.6528C121.992 19.8785 121.974 17.8768 122.596 16.087C122.9 15.2116 122.892 14.2326 122.571 13.3648C122.251 12.4969 121.646 11.8112 120.888 11.4582L113.398 7.97829C109.927 6.37129 106.045 6.41908 102.604 8.11115C99.1629 9.80322 96.4437 13.0015 95.0427 17.0044L17.8467 238.379C16.4545 242.387 16.4959 246.867 17.9617 250.839C19.4276 254.811 22.1983 257.95 25.6662 259.567L100.602 294.385C104.074 295.992 107.956 295.944 111.396 294.252C114.837 292.56 117.557 289.361 118.958 285.358L196.154 63.9833C197.546 59.9762 197.504 55.4954 196.039 51.5235C194.573 47.5516 191.802 44.4128 188.334 42.7956Z" fill="white"/>
<path d="M159.277 34.4588L135.84 23.5697C135.618 23.4665 135.441 23.2658 135.347 23.0117C135.253 22.7576 135.251 22.4709 135.34 22.2146C135.43 21.9584 135.604 21.7536 135.824 21.6453C136.044 21.5371 136.292 21.5342 136.514 21.6373L159.951 32.5265C160.06 32.5776 160.161 32.6531 160.245 32.7489C160.33 32.8446 160.397 32.9586 160.444 33.0845C160.49 33.2103 160.515 33.3454 160.516 33.4822C160.517 33.619 160.495 33.7547 160.451 33.8815C160.406 34.0084 160.341 34.124 160.258 34.2217C160.175 34.3194 160.076 34.3972 159.967 34.4508C159.858 34.5044 159.741 34.5327 159.623 34.5341C159.504 34.5355 159.387 34.5099 159.277 34.4588Z" fill="white"/>
<path d="M163.296 36.037C163.695 36.037 164.018 35.664 164.018 35.2038C164.018 34.7436 163.695 34.3706 163.296 34.3706C162.898 34.3706 162.575 34.7436 162.575 35.2038C162.575 35.664 162.898 36.037 163.296 36.037Z" fill="white"/>
<path d="M178.61 133.258C178.211 133.072 177.892 132.711 177.723 132.253C177.555 131.796 177.55 131.28 177.71 130.819L189.57 96.81C189.731 96.3493 190.044 95.9813 190.44 95.7868C190.836 95.5923 191.283 95.5873 191.682 95.7728C192.081 95.9583 192.4 96.3192 192.569 96.7762C192.738 97.2333 192.743 97.749 192.583 98.2101L180.724 132.219C180.562 132.68 180.249 133.048 179.853 133.243C179.457 133.438 179.01 133.443 178.61 133.258Z" fill="#3F3D56"/>
<path d="M75.8804 56.3368C75.4811 56.1507 75.1621 55.7894 74.9933 55.3321C74.8246 54.8748 74.8198 54.359 74.9802 53.8977L77.6755 46.1684C77.7549 45.9396 77.8725 45.7311 78.0218 45.5549C78.1711 45.3787 78.349 45.2381 78.5453 45.1413C78.7417 45.0445 78.9527 44.9934 79.1662 44.9908C79.3797 44.9882 79.5915 45.0343 79.7896 45.1263C79.9877 45.2184 80.1681 45.3546 80.3205 45.5272C80.4729 45.6997 80.5943 45.9053 80.6779 46.1322C80.7614 46.359 80.8053 46.6026 80.8072 46.849C80.809 47.0955 80.7688 47.34 80.6887 47.5684L77.9934 55.2977C77.8322 55.7586 77.5192 56.1268 77.123 56.3216C76.7269 56.5164 76.28 56.5219 75.8804 56.3368Z" fill="#3F3D56"/>
<path d="M70.894 70.636C70.4948 70.4499 70.1758 70.0886 70.007 69.6313C69.8382 69.174 69.8335 68.6582 69.9938 68.1969L72.6892 60.4676C72.7685 60.2387 72.8862 60.0302 73.0354 59.8539C73.1847 59.6776 73.3626 59.5371 73.559 59.4402C73.7554 59.3434 73.9664 59.2922 74.1799 59.2897C74.3934 59.2871 74.6053 59.3331 74.8034 59.4252C75.0015 59.5172 75.1819 59.6534 75.3343 59.826C75.4868 59.9987 75.6082 60.2043 75.6917 60.4312C75.7752 60.658 75.8192 60.9017 75.821 61.1482C75.8228 61.3946 75.7825 61.6391 75.7024 61.8676L73.0071 69.5969C72.8459 70.0578 72.5328 70.426 72.1367 70.6208C71.7406 70.8156 71.2937 70.8211 70.894 70.636Z" fill="#3F3D56"/>
<path d="M142.496 103.462L110.079 88.3997C109.415 88.0889 108.884 87.4872 108.604 86.7261C108.323 85.9651 108.314 85.1065 108.58 84.3383L116.36 62.0272C116.629 61.2605 117.151 60.6481 117.81 60.3238C118.469 59.9995 119.213 59.9896 119.878 60.2964L152.295 75.3582C152.959 75.669 153.49 76.2706 153.771 77.0316C154.052 77.7925 154.061 78.651 153.795 79.4192L146.015 101.731C145.745 102.497 145.224 103.11 144.565 103.434C143.906 103.758 143.162 103.768 142.496 103.462ZM119.332 61.8661C119.027 61.7256 118.686 61.7302 118.384 61.8789C118.082 62.0276 117.843 62.3083 117.719 62.6596L109.94 84.9692C109.818 85.3214 109.822 85.7148 109.951 86.0637C110.08 86.4125 110.323 86.6883 110.627 86.8308L143.042 101.891C143.347 102.032 143.688 102.028 143.991 101.879C144.293 101.73 144.532 101.449 144.656 101.098L152.435 78.7886C152.557 78.4364 152.553 78.0429 152.424 77.6942C152.295 77.3454 152.052 77.0696 151.747 76.9272L119.332 61.8661Z" fill="#3F3D56"/>
<path d="M142.689 89.2643L142.687 89.2634L117.663 77.6368C117.314 77.4735 117.017 77.1902 116.813 76.8254C116.608 76.4606 116.506 76.0319 116.52 75.5977L116.992 62.069C117.004 61.7319 117.086 61.4029 117.231 61.1098C117.376 60.8167 117.579 60.568 117.825 60.3846C118.07 60.2012 118.35 60.0884 118.641 60.0558C118.932 60.0231 119.225 60.0716 119.497 60.197L152.613 75.5086C153.061 75.7158 153.419 76.1189 153.61 76.63C153.802 77.1411 153.81 77.7187 153.633 78.2367L153.742 78.3622L152.703 79.5561L152.703 79.5557L144.658 88.8022C144.405 89.0936 144.084 89.2928 143.734 89.375C143.383 89.4572 143.02 89.4187 142.689 89.2643Z" fill="#3F3D56"/>
<path d="M123.898 90.2485L112.768 85.0774C112.494 84.9499 112.275 84.702 112.16 84.3881C112.044 84.0743 112.041 83.7202 112.151 83.4038C112.261 83.0874 112.476 82.8345 112.748 82.7007C113.02 82.567 113.326 82.5633 113.601 82.6904L124.73 87.8615C125.004 87.989 125.223 88.2369 125.339 88.5508C125.455 88.8646 125.458 89.2187 125.347 89.5351C125.237 89.8515 125.022 90.1044 124.75 90.2382C124.479 90.372 124.172 90.3757 123.898 90.2485V90.2485Z" fill="#3F3D56"/>
<path d="M130.788 85.9682C132.293 85.9682 133.512 84.5603 133.512 82.8235C133.512 81.0867 132.293 79.6787 130.788 79.6787C129.283 79.6787 128.064 81.0867 128.064 82.8235C128.064 84.5603 129.283 85.9682 130.788 85.9682Z" fill="white"/>
<path d="M94.1577 242.083L61.7406 227.021C61.0764 226.71 60.5458 226.108 60.2648 225.347C59.9839 224.586 59.9754 223.728 60.2413 222.959L68.0214 200.648C68.2906 199.882 68.8119 199.269 69.4711 198.945C70.1304 198.621 70.8741 198.611 71.5397 198.918L103.957 213.979C104.621 214.29 105.151 214.892 105.432 215.653C105.713 216.414 105.722 217.272 105.456 218.04L97.676 240.352C97.4067 241.118 96.8855 241.731 96.2262 242.055C95.567 242.379 94.8233 242.389 94.1577 242.083ZM70.9932 200.487C70.6881 200.347 70.3473 200.351 70.0451 200.5C69.743 200.649 69.5041 200.929 69.3806 201.281L61.6011 223.59C61.4794 223.942 61.4834 224.336 61.6122 224.685C61.741 225.034 61.9842 225.309 62.2886 225.452L94.7032 240.513C95.0084 240.653 95.3495 240.649 95.6518 240.5C95.9542 240.351 96.1933 240.071 96.3168 239.719L104.096 217.41C104.218 217.057 104.214 216.664 104.085 216.315C103.956 215.966 103.713 215.691 103.409 215.548L70.9932 200.487Z" fill="#3F3D56"/>
<path d="M94.3499 227.885L94.3481 227.885L69.3244 216.258C68.9755 216.095 68.6786 215.811 68.4741 215.446C68.2696 215.082 68.1674 214.653 68.1814 214.219L68.6538 200.69C68.6656 200.353 68.7473 200.024 68.8921 199.731C69.0369 199.438 69.2406 199.189 69.4859 199.006C69.7312 198.822 70.0111 198.71 70.3021 198.677C70.593 198.644 70.8865 198.693 71.1578 198.818L104.275 214.13C104.722 214.337 105.081 214.74 105.272 215.251C105.463 215.762 105.471 216.34 105.295 216.858L105.403 216.983L104.365 218.177L104.365 218.177L96.3193 227.423C96.0665 227.715 95.745 227.914 95.3948 227.996C95.0447 228.078 94.6813 228.04 94.3499 227.885Z" fill="#3F3D56"/>
<path d="M75.559 228.869L64.4296 223.698C64.1556 223.571 63.9366 223.323 63.8208 223.009C63.7051 222.695 63.7021 222.341 63.8124 222.024C63.9228 221.708 64.1374 221.455 64.4093 221.321C64.6811 221.188 64.9878 221.184 65.262 221.311L76.3914 226.482C76.5272 226.545 76.6509 226.638 76.7554 226.757C76.8599 226.875 76.9433 227.016 77.0006 227.171C77.058 227.327 77.0883 227.494 77.0897 227.663C77.0912 227.832 77.0638 227.999 77.0092 228.156C76.9545 228.313 76.8737 228.455 76.7712 228.576C76.6688 228.697 76.5467 228.793 76.4121 228.859C76.2774 228.925 76.1328 228.96 75.9864 228.962C75.84 228.964 75.6948 228.932 75.559 228.869Z" fill="#3F3D56"/>
<path d="M82.4494 224.589C83.954 224.589 85.1738 223.181 85.1738 221.445C85.1738 219.708 83.954 218.3 82.4494 218.3C80.9447 218.3 79.725 219.708 79.725 221.445C79.725 223.181 80.9447 224.589 82.4494 224.589Z" fill="white"/>
<path d="M107 185.578C123.458 185.578 136.799 170.178 136.799 151.181C136.799 132.184 123.458 116.784 107 116.784C90.5427 116.784 77.2012 132.184 77.2012 151.181C77.2012 170.178 90.5427 185.578 107 185.578Z" fill="#C4C4C4"/>
<path d="M118.309 172.764L85.8921 157.702C85.2279 157.391 84.6973 156.789 84.4164 156.028C84.1354 155.267 84.1269 154.409 84.3928 153.641L92.1729 131.329C92.4421 130.563 92.9634 129.95 93.6227 129.626C94.282 129.302 95.0257 129.292 95.6912 129.599L128.108 144.66C128.772 144.971 129.303 145.573 129.584 146.334C129.865 147.095 129.873 147.953 129.608 148.721L121.827 171.033C121.558 171.799 121.037 172.412 120.378 172.736C119.718 173.06 118.975 173.07 118.309 172.764ZM95.1447 131.168C94.8396 131.028 94.4988 131.032 94.1966 131.181C93.8945 131.33 93.6556 131.611 93.5322 131.962L85.7526 154.271C85.6309 154.624 85.6349 155.017 85.7637 155.366C85.8925 155.715 86.1357 155.99 86.4401 156.133L118.855 171.194C119.16 171.334 119.501 171.33 119.803 171.181C120.106 171.032 120.345 170.752 120.468 170.4L128.248 148.091C128.37 147.739 128.365 147.345 128.237 146.996C128.108 146.648 127.865 146.372 127.56 146.229L95.1447 131.168Z" fill="#3F3D56"/>
<path d="M118.501 158.567L118.5 158.566L93.4759 146.939C93.127 146.776 92.8302 146.492 92.6257 146.128C92.4212 145.763 92.319 145.334 92.3329 144.9L92.8053 131.371C92.8171 131.034 92.8989 130.705 93.0436 130.412C93.1884 130.119 93.3921 129.87 93.6374 129.687C93.8827 129.503 94.1627 129.391 94.4536 129.358C94.7445 129.325 95.038 129.374 95.3093 129.499L128.426 144.811C128.874 145.018 129.232 145.421 129.423 145.932C129.614 146.443 129.623 147.021 129.446 147.539L129.555 147.664L128.516 148.858L128.516 148.858L120.471 158.104C120.218 158.396 119.896 158.595 119.546 158.677C119.196 158.759 118.833 158.721 118.501 158.567Z" fill="#3F3D56"/>
<path d="M99.7105 159.55L88.5811 154.379C88.307 154.252 88.0881 154.004 87.9724 153.69C87.8566 153.376 87.8536 153.022 87.9639 152.706C88.0743 152.389 88.2889 152.136 88.5608 152.002C88.8326 151.869 89.1393 151.865 89.4135 151.992L100.543 157.163C100.817 157.291 101.036 157.539 101.152 157.853C101.267 158.166 101.27 158.52 101.16 158.837C101.05 159.153 100.835 159.406 100.563 159.54C100.291 159.674 99.9847 159.677 99.7105 159.55Z" fill="#3F3D56"/>
<path d="M26.474 176.359C26.4769 175.701 26.3548 175.051 26.1163 174.453C25.8777 173.855 25.5285 173.325 25.0933 172.9C24.6582 172.475 24.1475 172.166 23.5974 171.993C23.0473 171.82 22.4711 171.789 21.9094 171.901L15.1998 157.906L11.8595 165.27L18.7432 177.431C18.9691 178.508 19.5294 179.451 20.3178 180.083C21.1062 180.715 22.068 180.991 23.0209 180.859C23.9739 180.727 24.8517 180.196 25.4881 179.367C26.1246 178.537 26.4754 177.467 26.474 176.359H26.474Z" fill="#9E616A"/>
<path d="M22.139 119.83L15.2393 119.271C15.2393 119.271 14.3894 119.137 12.052 123.416C9.71471 127.694 1.70279 149.389 1.70279 149.389L15.7394 172.907L20.2983 167.668L12.1478 148.745L19.9601 136.08L22.139 119.83Z" fill="#CACACA"/>
<path d="M98.2044 145.254C97.742 145.457 97.2465 145.541 96.7529 145.5C96.2593 145.459 95.7795 145.293 95.3474 145.014C94.9153 144.736 94.5414 144.351 94.252 143.888C93.9625 143.424 93.7647 142.893 93.6722 142.332L81.7703 140.31L85.9354 134.928L96.5991 137.674C97.4262 137.557 98.2616 137.795 98.9471 138.342C99.6326 138.888 100.12 139.706 100.318 140.641C100.516 141.575 100.41 142.561 100.021 143.411C99.6311 144.261 98.9848 144.917 98.2044 145.254Z" fill="#9E616A"/>
<path d="M52.454 295.743H57.5401L59.9596 273.099L52.4534 273.099L52.454 295.743Z" fill="#9E616A"/>
<path d="M51.1568 293.827L52.5884 293.827L58.1774 291.203L61.173 293.826H61.1734C62.8663 293.826 64.4898 294.603 65.6868 295.984C66.8838 297.366 67.5564 299.24 67.5565 301.194V301.434L51.1571 301.434L51.1568 293.827Z" fill="#2F2E41"/>
<path d="M21.7742 295.743H26.8603L29.2798 273.099L21.7736 273.099L21.7742 295.743Z" fill="#9E616A"/>
<path d="M20.477 293.827L21.9085 293.827L27.4976 291.203L30.4931 293.826H30.4935C32.1864 293.826 33.8099 294.603 35.0069 295.984C36.204 297.366 36.8765 299.24 36.8766 301.194V301.434L20.4773 301.434L20.477 293.827Z" fill="#2F2E41"/>
<path d="M23.7361 184.235L20.3746 207.624L21.5049 282.811H29.7784L42.4896 203.28L51.6331 281.503L59.9519 281.088L64.1034 202.13L60.373 181.976L23.7361 184.235Z" fill="#2F2E41"/>
<path d="M54.1351 114.676L45.2799 113.17L43.3972 107.528L30.9217 107.508L28.1186 114.876L15.3703 119.318L25.9323 161.199C25.9323 161.199 20.1115 176.763 21.5431 176.83C22.9747 176.896 23.68 179.259 22.6814 180.501C21.6829 181.742 19.6794 180.953 20.6811 182.839C21.255 183.859 21.6394 185.006 21.81 186.207C21.81 186.207 64.0514 196.617 61.7114 183.193C61.4205 181.525 57.891 158.407 57.891 158.407C57.891 158.407 60.9644 154.481 59.6508 152.921C58.3372 151.361 59.0309 134.885 59.0309 134.885L54.1351 114.676Z" fill="#CACACA"/>
<path d="M52.6856 116.507L54.135 114.677L73.825 128.004L90.4858 135.673L90.8087 142.383L69.1713 139.401L53.8573 130.758L52.6856 116.507Z" fill="#CACACA"/>
<path d="M47.2109 91.3452C47.2109 92.9251 46.9413 94.4896 46.4175 95.9493C45.8937 97.409 45.1259 98.7353 44.1581 99.8526C43.1902 100.97 42.0412 101.856 40.7766 102.461C39.512 103.065 38.1567 103.376 36.7879 103.376C35.9671 103.375 35.1491 103.265 34.3501 103.047C32.4464 102.52 30.7098 101.384 29.3391 99.7706C27.9683 98.1571 27.0189 96.1306 26.5993 93.9232C26.1797 91.7158 26.307 89.4167 26.9666 87.2889C27.6262 85.1611 28.7915 83.2907 30.329 81.8917C31.8666 80.4927 33.7143 79.6216 35.6607 79.3782C37.6071 79.1347 39.5736 79.5287 41.335 80.5151C43.0965 81.5015 44.5818 83.0404 45.621 84.9557C46.6601 86.8709 47.2111 89.0853 47.2109 91.3451V91.3452Z" fill="#9E616A"/>
<path d="M39.5797 101.101L32.0936 102.768C31.3961 102.986 30.6654 103.021 29.9547 102.87C28.8411 102.532 28.0948 101.346 27.5251 100.191C24.882 94.7804 24.0496 88.4392 25.1856 82.368C25.4413 81.0278 25.9879 79.4924 27.153 79.2194C27.4914 79.1401 27.8742 79.1715 28.1421 78.9199C28.5366 78.5494 28.4068 77.764 28.0193 77.3838C27.5981 77.0486 27.1015 76.8623 26.5901 76.8476C26.9205 76.3993 27.3294 76.0368 27.7899 75.784C28.2504 75.5312 28.752 75.3937 29.2618 75.3808L27.2594 74.0964C28.2239 73.3239 29.5197 73.3944 30.6575 73.7282C31.7953 74.062 32.8904 74.6272 34.0592 74.7537C35.5267 74.9125 36.9748 74.3682 38.4374 74.1578C40.6198 73.8846 42.8243 74.3395 44.7895 75.4686C46.7547 76.5977 48.3983 78.3536 49.5252 80.5281C49.9225 81.2533 50.1741 82.0719 50.2617 82.924C50.302 83.3501 50.2557 83.7811 50.1263 84.1829C49.997 84.5846 49.7882 84.946 49.5166 85.2383C48.6969 86.0342 47.4056 85.9172 46.6115 86.747C45.9994 87.3866 45.847 88.4195 45.8125 89.3717C45.7779 90.3238 45.8171 91.3188 45.4636 92.1801C45.1101 93.0413 44.1875 93.6889 43.4499 93.2608C43.4173 92.0813 42.2395 91.2462 41.2391 91.4897C40.2388 91.7332 39.5 92.7834 39.2121 93.9158C38.9243 95.0482 39.0097 96.2582 39.1351 97.4294C39.2604 98.6007 39.4234 99.7857 39.2827 100.955" fill="#2F2E41"/>
<path d="M105.438 155.62C106.942 155.62 108.162 154.212 108.162 152.475C108.162 150.738 106.942 149.33 105.438 149.33C103.933 149.33 102.713 150.738 102.713 152.475C102.713 154.212 103.933 155.62 105.438 155.62Z" fill="#6C63FF"/>
</svg>
