<svg width="34" height="37" viewBox="0 0 34 37" fill="none" xmlns="http://www.w3.org/2000/svg">
<path d="M2.79233 22.0423H30.0261M2.79233 14.1H30.0261H2.79233Z" stroke="white" stroke-width="2" stroke-linecap="round" stroke-linejoin="round"/>
<path d="M3.06003 32.1755C3.06003 33.5378 4.14732 34.6421 5.4886 34.6421C6.82985 34.6421 7.91717 33.5378 7.91717 32.1755H3.06003ZM27.3314 4.24066C27.3314 2.87837 26.2441 1.774 24.9028 1.774C23.5615 1.774 22.4742 2.87837 22.4742 4.24066H27.3314ZM7.91717 32.1755V12.0125H3.06003V32.1755H7.91717ZM7.91717 12.0125L18.5061 27.2488L22.4742 24.4037L11.8853 9.16748L7.91717 12.0125ZM27.3314 24.4037V4.24066H22.4742V24.4037H27.3314ZM18.5061 27.2488C21.239 31.1811 27.3314 29.2172 27.3314 24.4037H22.4742L18.5061 27.2488ZM7.91717 12.0125L11.8853 9.16748C9.15234 5.23504 3.06003 7.19903 3.06003 12.0125H7.91717Z" fill="white"/>
</svg>
