<svg width="14" height="15" viewBox="0 0 14 15" fill="none" xmlns="http://www.w3.org/2000/svg">
<path d="M1.14978 8.93605H12.3637M1.14978 5.71622H12.3637H1.14978Z" stroke="#3A3A3A" stroke-width="2" stroke-linecap="round" stroke-linejoin="round"/>
<path d="M1.26001 13.0441C1.26001 13.5964 1.70772 14.0441 2.26001 14.0441C2.81229 14.0441 3.26001 13.5964 3.26001 13.0441H1.26001ZM11.2541 1.71919C11.2541 1.16691 10.8064 0.719193 10.2541 0.719193C9.70179 0.719193 9.25408 1.16691 9.25408 1.71919H11.2541ZM3.26001 13.0441V4.86992H1.26001V13.0441H3.26001ZM3.26001 4.86992L7.62014 11.0468L9.25408 9.8934L4.89395 3.71655L3.26001 4.86992ZM11.2541 9.8934V1.71919H9.25408V9.8934H11.2541ZM7.62014 11.0468C8.74548 12.641 11.2541 11.8448 11.2541 9.8934H9.25408L7.62014 11.0468ZM3.26001 4.86992L4.89395 3.71655C3.76861 2.12232 1.26001 2.91853 1.26001 4.86992H3.26001Z" fill="#3A3A3A"/>
</svg>
