<svg width="155" height="305" viewBox="0 0 155 305" fill="none" xmlns="http://www.w3.org/2000/svg">
<path d="M91.2999 137.303L94.9457 204.645C94.9457 204.645 103.696 231.148 103.331 256.347C103.331 256.347 100.05 266.34 102.602 268.078C105.154 269.815 106.612 271.119 105.154 272.422C103.696 273.726 102.602 276.767 103.696 277.636C104.789 278.505 105.154 279.808 104.789 279.808H93.852C93.852 279.808 96.0394 273.291 92.7582 271.553C89.477 269.815 91.2999 265.471 91.2999 265.471L66.873 180.315L47.5503 258.519C47.5503 258.519 50.8315 261.126 48.2794 262.429C45.7274 263.733 44.6336 261.126 45.7274 263.733C46.8211 266.34 45.3628 267.643 45.3628 268.078C45.3628 268.512 34.4254 266.774 34.4254 266.774C34.4254 266.774 39.8941 261.126 37.342 259.823C34.7899 258.519 33.6962 257.216 34.4254 256.347C35.1545 255.478 38.0712 247.223 38.0712 247.223C38.0712 247.223 39.5295 215.941 39.8941 214.638C40.2587 213.335 39.8941 207.252 39.8941 204.211C39.8941 201.169 39.5295 189.004 40.6232 185.963C41.717 182.922 42.8107 145.557 48.644 141.213C54.4773 136.868 91.2999 137.303 91.2999 137.303Z" fill="#2F2E41"/>
<path d="M44.9983 265.906C44.9983 265.906 52.2899 283.719 47.1858 285.891C42.0816 288.064 35.5192 286.326 34.0609 288.933C32.6025 291.539 16.561 294.581 16.1964 288.064C15.8318 281.547 33.6963 269.381 33.6963 269.381L36.0234 264.916L44.9983 265.906Z" fill="#2F2E41"/>
<path d="M104.06 278.939C104.06 278.939 111.352 296.753 106.248 298.925C101.144 301.097 94.5811 299.359 93.1228 301.966C91.6645 304.573 75.623 307.614 75.2584 301.097C74.8938 294.58 92.7582 282.415 92.7582 282.415L95.0853 277.95L104.06 278.939Z" fill="#2F2E41"/>
<path d="M70.3366 55.4059C76.9812 55.4059 82.3677 48.9868 82.3677 41.0684C82.3677 33.1501 76.9812 26.731 70.3366 26.731C63.692 26.731 58.3054 33.1501 58.3054 41.0684C58.3054 48.9868 63.692 55.4059 70.3366 55.4059Z" fill="#A0616A"/>
<path d="M78.5398 48.6714L77.0815 61.271L66.1441 71.2637L63.2274 66.4846V49.9748L78.5398 48.6714Z" fill="#A0616A"/>
<path d="M61.4044 64.7467C61.4044 64.7467 72.7064 66.0501 78.5397 61.271L90.2062 143.386C90.2062 143.386 49.0086 147.296 47.1857 144.689V119.055L54.4773 77.3463L61.4044 64.7467Z" fill="#3F3D56"/>
<path d="M77.5357 57.3452L81.4563 61.2712C81.4563 61.2712 97.4978 64.3124 96.4041 69.5261L92.0291 131.221L93.4875 152.075C93.4875 152.075 81.0917 148.165 71.6126 152.075C62.1335 155.985 69.6645 68.0474 69.6645 68.0474C69.6645 68.0474 78.3547 58.6329 77.5357 57.3452Z" fill="#D0CDE1"/>
<path d="M63.2273 62.1006C63.2273 62.1006 51.5607 72.1327 50.1024 78.6497C48.6441 85.1667 43.9045 153.813 43.9045 153.813C43.9045 153.813 46.092 152.509 47.1858 154.682C48.2795 156.854 65.0502 65.537 63.2273 62.1006Z" fill="#D0CDE1"/>
<path d="M58.3112 40.4433C58.3112 40.4433 57.0088 38.1151 57.5097 35.6078C57.809 34.1843 57.9272 32.7153 57.8604 31.2499C57.8604 31.2499 58.9123 27.1905 59.9643 24.9221C61.0163 22.6536 60.5154 21.6984 63.8216 20.9821C67.1278 20.2657 65.7752 15.1318 74.4916 20.6836C74.7857 21.1729 75.1948 21.5474 75.6673 21.7599C76.1398 21.9724 76.6546 22.0133 77.1466 21.8775C78.95 21.4596 79.6012 24.4445 79.6012 24.4445C79.6012 24.4445 80.8035 23.6087 81.2543 24.8027C81.7052 25.9966 84.9198 24.0861 84.9198 32.1452C84.9198 40.2043 81.2616 47.4031 81.2616 47.4031C81.2616 47.4031 81.5298 33.8468 75.5686 32.4737C69.6074 31.1007 63.1954 27.101 61.6425 32.2349C60.8042 35.1164 59.6862 37.8712 58.3112 40.4433Z" fill="#2F2E41"/>
<path d="M81.3923 43.6663C82.0417 43.6663 82.5681 42.8298 82.5681 41.798C82.5681 40.7662 82.0417 39.9297 81.3923 39.9297C80.7429 39.9297 80.2165 40.7662 80.2165 41.798C80.2165 42.8298 80.7429 43.6663 81.3923 43.6663Z" fill="#A0616A"/>
<path d="M31.9791 176.155C29.0943 174.088 25.6158 174.246 24.2934 174.403C24.797 175.869 26.308 179.606 29.1928 181.674C32.0848 183.747 35.5586 183.584 36.879 183.427C36.3756 181.963 34.8644 178.224 31.9791 176.155Z" fill="#D0CDE1"/>
<path d="M45.5354 217.179H27.5048C26.4288 217.179 25.3969 217.689 24.6361 218.595C23.8753 219.502 23.4479 220.732 23.4479 222.014C23.4479 223.296 23.8753 224.526 24.6361 225.432C25.3969 226.339 26.4288 226.848 27.5048 226.848H45.5354C46.6107 226.847 47.6416 226.337 48.4016 225.431C49.1616 224.524 49.5885 223.295 49.5885 222.014C49.5885 220.732 49.1616 219.503 48.4016 218.597C47.6416 217.69 46.6107 217.18 45.5354 217.179Z" fill="#D0CDE1"/>
<path d="M127.184 166.148H26.0921C24.9161 166.148 23.7516 166.424 22.6652 166.96C21.5787 167.497 20.5915 168.283 19.7599 169.274C18.9284 170.265 18.2688 171.441 17.8187 172.736C17.3687 174.03 17.1371 175.418 17.1371 176.82V235.516C17.1371 238.346 18.0805 241.06 19.7599 243.062C21.4393 245.063 23.7171 246.187 26.0921 246.187H127.184C128.36 246.187 129.525 245.911 130.611 245.375C131.698 244.839 132.685 244.052 133.517 243.062C134.348 242.071 135.008 240.894 135.458 239.599C135.908 238.305 136.14 236.917 136.14 235.516V176.82C136.14 175.418 135.908 174.03 135.458 172.736C135.008 171.441 134.348 170.265 133.517 169.274C132.685 168.283 131.698 167.497 130.611 166.96C129.525 166.424 128.36 166.148 127.184 166.148ZM23.5909 173.428C23.7905 173.385 28.5242 172.425 32.444 175.235C36.3635 178.046 37.8695 183.48 37.9315 183.71L38.09 184.295L37.5814 184.403C36.8557 184.538 36.122 184.602 35.3876 184.595C33.6074 184.595 31.0279 184.244 28.728 182.595C24.8085 179.785 23.3028 174.351 23.2407 174.121L23.0822 173.535L23.5909 173.428ZM45.5354 227.923H27.5047C26.1897 227.923 24.9285 227.301 23.9986 226.193C23.0687 225.084 22.5463 223.581 22.5463 222.014C22.5463 220.447 23.0687 218.944 23.9986 217.836C24.9285 216.728 26.1897 216.105 27.5047 216.105H45.5354C46.8505 216.105 48.1117 216.728 49.0415 217.836C49.9714 218.944 50.4938 220.447 50.4938 222.014C50.4938 223.581 49.9714 225.084 49.0415 226.193C48.1117 227.301 46.8505 227.923 45.5354 227.923ZM127.575 226.849C127.571 228.557 126.999 230.194 125.986 231.401C124.972 232.609 123.599 233.29 122.166 233.295H108.643C107.209 233.29 105.836 232.609 104.822 231.401C103.809 230.194 103.238 228.557 103.234 226.849V217.18C103.238 215.472 103.809 213.835 104.822 212.627C105.836 211.419 107.209 210.739 108.643 210.734H122.166C123.599 210.739 124.972 211.419 125.986 212.627C127 213.835 127.571 215.472 127.575 217.18L127.575 226.849Z" fill="#C4C4C4"/>
<path d="M112.925 224.968H107.065C106.647 224.968 106.245 225.166 105.949 225.519C105.654 225.872 105.487 226.35 105.487 226.848C105.487 227.347 105.654 227.825 105.949 228.178C106.245 228.53 106.647 228.729 107.065 228.729H112.925C113.343 228.729 113.745 228.53 114.041 228.178C114.336 227.825 114.503 227.347 114.503 226.848C114.503 226.35 114.336 225.872 114.041 225.519C113.745 225.166 113.343 224.968 112.925 224.968ZM112.925 227.654H107.065C106.976 227.654 106.888 227.634 106.806 227.593C106.724 227.553 106.649 227.494 106.586 227.419C106.523 227.344 106.473 227.255 106.439 227.157C106.405 227.059 106.387 226.954 106.387 226.848C106.387 226.742 106.405 226.637 106.439 226.54C106.473 226.442 106.523 226.353 106.586 226.278C106.649 226.203 106.724 226.144 106.806 226.103C106.888 226.063 106.976 226.042 107.065 226.043H112.925C113.014 226.042 113.102 226.063 113.184 226.103C113.266 226.144 113.341 226.203 113.404 226.278C113.467 226.353 113.517 226.442 113.551 226.54C113.585 226.637 113.603 226.742 113.603 226.848C113.603 226.954 113.585 227.059 113.551 227.157C113.517 227.255 113.467 227.344 113.404 227.419C113.341 227.494 113.266 227.553 113.184 227.593C113.102 227.634 113.014 227.654 112.925 227.654Z" fill="#D0CDE1"/>
<path d="M123.743 224.968H117.883C117.676 224.968 117.471 225.016 117.279 225.111C117.087 225.205 116.913 225.343 116.766 225.518C116.62 225.693 116.503 225.9 116.424 226.128C116.344 226.357 116.303 226.601 116.303 226.848C116.303 227.096 116.344 227.34 116.424 227.569C116.503 227.797 116.62 228.004 116.766 228.179C116.913 228.353 117.087 228.492 117.279 228.586C117.471 228.681 117.676 228.729 117.883 228.729H123.743C124.162 228.729 124.563 228.53 124.859 228.178C125.155 227.825 125.321 227.347 125.321 226.848C125.321 226.35 125.155 225.872 124.859 225.519C124.563 225.166 124.162 224.968 123.743 224.968ZM123.743 227.654H117.883C117.795 227.654 117.706 227.634 117.624 227.593C117.542 227.553 117.467 227.494 117.404 227.419C117.341 227.344 117.291 227.255 117.257 227.157C117.223 227.059 117.206 226.954 117.206 226.848C117.206 226.742 117.223 226.637 117.257 226.54C117.291 226.442 117.341 226.353 117.404 226.278C117.467 226.203 117.542 226.144 117.624 226.103C117.706 226.063 117.795 226.042 117.883 226.043H123.743C123.922 226.043 124.094 226.128 124.221 226.279C124.347 226.43 124.418 226.635 124.418 226.848C124.418 227.062 124.347 227.266 124.221 227.418C124.094 227.569 123.922 227.654 123.743 227.654Z" fill="#D0CDE1"/>
<path d="M112.925 220.134H107.065C106.647 220.134 106.245 220.332 105.949 220.684C105.654 221.037 105.487 221.515 105.487 222.014C105.487 222.513 105.654 222.991 105.949 223.343C106.245 223.696 106.647 223.894 107.065 223.894H112.925C113.132 223.894 113.338 223.846 113.529 223.752C113.721 223.657 113.895 223.519 114.042 223.344C114.189 223.17 114.305 222.962 114.385 222.734C114.464 222.506 114.505 222.261 114.505 222.014C114.505 221.767 114.464 221.522 114.385 221.294C114.305 221.065 114.189 220.858 114.042 220.683C113.895 220.509 113.721 220.37 113.529 220.276C113.338 220.182 113.132 220.133 112.925 220.134ZM112.925 222.82H107.065C106.886 222.82 106.714 222.735 106.587 222.584C106.46 222.433 106.389 222.228 106.389 222.014C106.389 221.8 106.46 221.595 106.587 221.444C106.714 221.293 106.886 221.208 107.065 221.208H112.925C113.104 221.208 113.276 221.293 113.403 221.444C113.53 221.595 113.601 221.8 113.601 222.014C113.601 222.228 113.53 222.433 113.403 222.584C113.276 222.735 113.104 222.82 112.925 222.82Z" fill="#D0CDE1"/>
<path d="M123.743 220.134H117.883C117.676 220.133 117.471 220.182 117.279 220.276C117.087 220.37 116.913 220.509 116.766 220.683C116.62 220.858 116.503 221.065 116.424 221.294C116.344 221.522 116.303 221.767 116.303 222.014C116.303 222.261 116.344 222.506 116.424 222.734C116.503 222.962 116.62 223.17 116.766 223.344C116.913 223.519 117.087 223.657 117.279 223.752C117.471 223.846 117.676 223.894 117.883 223.894H123.743C124.162 223.894 124.563 223.696 124.859 223.343C125.155 222.991 125.321 222.513 125.321 222.014C125.321 221.515 125.155 221.037 124.859 220.684C124.563 220.332 124.162 220.134 123.743 220.134ZM123.743 222.82H117.883C117.704 222.82 117.532 222.735 117.405 222.584C117.279 222.433 117.207 222.228 117.207 222.014C117.207 221.8 117.279 221.595 117.405 221.444C117.532 221.293 117.704 221.208 117.883 221.208H123.743C123.923 221.208 124.095 221.293 124.222 221.444C124.348 221.595 124.42 221.8 124.42 222.014C124.42 222.228 124.348 222.433 124.222 222.584C124.095 222.735 123.923 222.82 123.743 222.82Z" fill="#D0CDE1"/>
<path d="M112.925 215.299H107.065C106.647 215.299 106.245 215.497 105.949 215.85C105.654 216.203 105.487 216.681 105.487 217.179C105.487 217.678 105.654 218.156 105.949 218.509C106.245 218.861 106.647 219.06 107.065 219.06H112.925C113.343 219.06 113.745 218.861 114.041 218.509C114.336 218.156 114.503 217.678 114.503 217.179C114.503 216.681 114.336 216.203 114.041 215.85C113.745 215.497 113.343 215.299 112.925 215.299ZM112.925 217.985H107.065C106.886 217.985 106.714 217.9 106.587 217.749C106.46 217.598 106.389 217.393 106.389 217.179C106.389 216.966 106.46 216.761 106.587 216.61C106.714 216.459 106.886 216.374 107.065 216.374H112.925C113.104 216.374 113.276 216.459 113.403 216.61C113.53 216.761 113.601 216.966 113.601 217.179C113.601 217.393 113.53 217.598 113.403 217.749C113.276 217.9 113.104 217.985 112.925 217.985Z" fill="#D0CDE1"/>
<path d="M123.743 215.299H117.883C117.676 215.299 117.471 215.347 117.279 215.442C117.087 215.536 116.913 215.674 116.766 215.849C116.62 216.024 116.503 216.231 116.424 216.459C116.344 216.688 116.303 216.932 116.303 217.179C116.303 217.427 116.344 217.671 116.424 217.9C116.503 218.128 116.62 218.335 116.766 218.51C116.913 218.685 117.087 218.823 117.279 218.917C117.471 219.012 117.676 219.06 117.883 219.06H123.743C124.161 219.059 124.562 218.86 124.857 218.508C125.153 218.155 125.319 217.678 125.319 217.179C125.319 216.681 125.153 216.204 124.857 215.851C124.562 215.498 124.161 215.3 123.743 215.299ZM123.743 217.985H117.883C117.704 217.985 117.532 217.9 117.405 217.749C117.279 217.598 117.207 217.393 117.207 217.179C117.207 216.966 117.279 216.761 117.405 216.61C117.532 216.459 117.704 216.374 117.883 216.374H123.743C123.923 216.374 124.095 216.459 124.222 216.61C124.348 216.761 124.42 216.966 124.42 217.179C124.42 217.393 124.348 217.598 124.222 217.749C124.095 217.9 123.923 217.985 123.743 217.985Z" fill="#D0CDE1"/>
<path d="M95.3103 152.944L92.6969 163.107C92.6969 163.107 92.0291 182.054 83.2792 179.447C74.5293 176.84 85.8313 154.682 85.8313 154.682L88.3833 149.903L95.3103 152.944Z" fill="#A0616A"/>
<path d="M45.7274 152.944L43.114 163.107C43.114 163.107 42.4462 182.054 33.6963 179.447C24.9464 176.84 36.2484 154.682 36.2484 154.682L38.8004 149.903L45.7274 152.944Z" fill="#A0616A"/>
<path d="M93.4875 66.4848C93.4875 66.4848 99.3208 64.747 101.144 76.4776C102.967 88.2083 105.154 121.662 105.154 121.662L96.4041 156.854C96.4041 156.854 87.6542 151.206 85.8313 152.075L92.7168 121.523L86.925 90.3806C86.925 90.3806 92.0292 66.4848 93.4875 66.4848Z" fill="#D0CDE1"/>
<path opacity="0.15" d="M85.006 90.9746L92.6622 121.387L85.006 152.235L89.381 121.387L85.006 90.9746Z" fill="black"/>
<path d="M50.1023 90.3804L36.9774 152.075C36.9774 152.075 43.9006 154.798 46.4527 156.97L50.1023 90.3804Z" fill="#D0CDE1"/>
</svg>
