<svg width="32" height="32" viewBox="0 0 32 32" fill="none" xmlns="http://www.w3.org/2000/svg">
<g clip-path="url(#clip0)">
<path d="M28.4346 13.7919H27.0994C26.8741 13.7981 26.6523 13.7352 26.4638 13.6117C26.2752 13.4881 26.1291 13.3097 26.045 13.1007C25.9609 12.8915 25.9428 12.6617 25.9932 12.4419C26.0436 12.2223 26.1601 12.0233 26.327 11.8719L28.0484 10.2498C28.6878 9.64687 29.0616 8.81471 29.0875 7.93625C29.1133 7.0578 28.7892 6.20506 28.1863 5.56561C27.5835 4.92616 26.7512 4.5524 25.8728 4.52653C24.9943 4.50066 24.1416 4.82481 23.5021 5.42768L21.1629 7.63458C21.0063 7.77976 20.8111 7.87643 20.6007 7.91286C20.3903 7.94929 20.174 7.92392 19.9777 7.83983C19.7815 7.75574 19.6139 7.61653 19.4953 7.43908C19.3765 7.26163 19.3119 7.05356 19.3091 6.84009V3.52975C19.3345 2.6474 19.0201 1.789 18.4307 1.13186C17.8413 0.474729 17.0221 0.0690785 16.1421 -0.0012848C15.6955 -0.0206576 15.2496 0.0506385 14.8313 0.208303C14.4129 0.365968 14.0309 0.606734 13.7081 0.916081C13.3854 1.22542 13.1286 1.59694 12.9534 2.00822C12.7781 2.41949 12.6879 2.862 12.6884 3.30906V5.83596C12.7028 6.06724 12.6441 6.29719 12.5205 6.49322C12.3969 6.68924 12.2148 6.84139 11.9999 6.92808C11.785 7.01478 11.5483 7.03162 11.3233 6.97621C11.0982 6.92081 10.8964 6.79597 10.7463 6.61941L9.79736 5.65941C9.17985 5.03313 8.33882 4.6778 7.45936 4.67159C6.57988 4.66538 5.73396 5.00881 5.10768 5.6263C4.4814 6.2438 4.12608 7.08479 4.11987 7.96427C4.11366 8.84375 4.45708 9.6897 5.07457 10.3159L6.59733 11.8608C6.77135 12.0131 6.89313 12.2161 6.94548 12.4414C6.99783 12.6666 6.97811 12.9026 6.88908 13.116C6.80006 13.3294 6.64624 13.5094 6.44935 13.6307C6.25247 13.752 6.02246 13.8083 5.79182 13.7919H3.30906C2.862 13.7914 2.41949 13.8815 2.00821 14.0568C1.59694 14.2321 1.22543 14.4888 0.916077 14.8116C0.606734 15.1343 0.365968 15.5163 0.208303 15.9347C0.0506386 16.353 -0.0206576 16.799 -0.00128481 17.2456C0.0689993 18.1236 0.473091 18.9411 1.12785 19.5303C1.78261 20.1193 2.63825 20.4351 3.51872 20.4125H4.78768C5.02061 20.3975 5.25231 20.4566 5.44948 20.5816C5.64664 20.7066 5.7991 20.8908 5.88495 21.1079C5.97079 21.3249 5.98558 21.5636 5.92722 21.7896C5.86885 22.0156 5.74031 22.2173 5.5601 22.3656L5.05251 22.8511C4.41306 23.454 4.03929 24.2862 4.01342 25.1647C3.98756 26.0431 4.31171 26.8959 4.91458 27.5353C5.51744 28.1747 6.34964 28.5484 7.22808 28.5744C8.10653 28.6002 8.95929 28.276 9.59872 27.6732L10.8457 26.4815C11.0025 26.3398 11.1967 26.2462 11.4053 26.2117C11.6139 26.1772 11.828 26.2034 12.022 26.2871C12.2162 26.3708 12.3821 26.5085 12.5003 26.6838C12.6184 26.8591 12.6837 27.0646 12.6884 27.2759V28.6883C12.6892 29.566 13.0384 30.4075 13.6594 31.0277C14.2037 31.5745 14.9218 31.914 15.6897 31.9877C16.1647 32.0074 16.6386 31.9295 17.0823 31.7589C17.526 31.5881 17.9299 31.3283 18.2692 30.9952C18.6084 30.6622 18.8757 30.2632 19.0546 29.8227C19.2334 29.3823 19.3201 28.9098 19.3091 28.4346V27.4746C19.31 27.2563 19.3756 27.0433 19.4975 26.8623C19.6196 26.6814 19.7925 26.5407 19.9945 26.458C20.1965 26.3753 20.4184 26.3544 20.6322 26.3979C20.8461 26.4413 21.0422 26.5472 21.1959 26.7021L22.8732 28.4015C23.2151 28.7495 23.6298 29.0176 24.0875 29.1867C24.5452 29.3558 25.0345 29.4216 25.5206 29.3794C26.0068 29.3372 26.4775 29.1881 26.8992 28.9427C27.3209 28.6974 27.6832 28.3618 27.9601 27.9601C28.3915 27.2988 28.5801 26.5082 28.4936 25.7234C28.407 24.9385 28.0507 24.2081 27.4857 23.6566L26.1504 22.2994C25.9949 22.1451 25.8887 21.9479 25.8456 21.733C25.8025 21.518 25.8244 21.2952 25.9084 21.0928C25.9924 20.8904 26.1348 20.7176 26.3175 20.5964C26.5001 20.4753 26.7147 20.4113 26.9339 20.4125H28.6884C29.5661 20.4118 30.4075 20.0625 31.0277 19.4415C31.5745 18.8972 31.914 18.1791 31.9877 17.4111C32.0074 16.9361 31.9295 16.4622 31.7588 16.0186C31.5881 15.5749 31.3282 15.171 30.9952 14.8318C30.6622 14.4925 30.2631 14.2252 29.8227 14.0464C29.3823 13.8675 28.9098 13.7809 28.4346 13.7919ZM19.7836 17.1021C19.7854 17.4763 19.7296 17.8485 19.618 18.2056C19.5421 18.4484 19.4384 18.6817 19.3091 18.9008C18.9404 19.5519 18.3824 20.0753 17.7091 20.4015C17.4957 20.51 17.2695 20.5916 17.0359 20.6442C16.737 20.7231 16.4292 20.764 16.1201 20.7656C15.8295 20.7683 15.5399 20.7313 15.2594 20.6553C15.0076 20.5993 14.7632 20.5142 14.5311 20.4015C13.6765 19.9952 13.015 19.2703 12.6884 18.3821C12.6239 18.2295 12.5759 18.0704 12.5449 17.9077C12.4871 17.6468 12.4575 17.3804 12.4566 17.1132C12.4545 16.6795 12.5331 16.2492 12.6884 15.8442V15.5683L12.8429 15.4911C13.2061 14.7411 13.8184 14.1405 14.5753 13.7919L14.6966 13.7366C15.1429 13.5455 15.6236 13.4479 16.1091 13.4498H16.3518C16.6228 13.4618 16.8905 13.5138 17.1463 13.6042H17.3008L17.7753 13.7366L17.9076 13.8691C18.501 14.2101 18.9866 14.711 19.3091 15.3146C19.6227 15.8619 19.7864 16.4824 19.7836 17.1132V17.1021Z" fill="#818181"/>
<path d="M12.6897 15.5696L12.8442 15.4924L12.7007 15.6249L12.6897 15.5696Z" fill="#818181"/>
<path d="M17.7876 13.7931H17.6551C17.5458 13.7375 17.4313 13.6932 17.313 13.6606L17.7876 13.7931Z" fill="#818181"/>
<path d="M12.8442 15.4482L12.7007 15.5807V15.5034L12.8442 15.4482Z" fill="#818181"/>
<path d="M17.313 13.6606L17.7876 13.7931H17.6551C17.5458 13.7375 17.4313 13.6932 17.313 13.6606Z" fill="#818181"/>
<path d="M12.6897 15.5696L12.8442 15.4924L12.7007 15.6249V15.5476L12.6897 15.5696Z" fill="#818181"/>
<path d="M17.1586 13.6165C16.8939 13.5613 16.6069 13.4951 16.3641 13.462C16.6352 13.474 16.9029 13.5261 17.1586 13.6165Z" fill="#818181"/>
<path d="M12.8442 15.4924L12.6897 15.8455L12.6786 15.6469V15.5696H12.6897L12.8442 15.4924Z" fill="#818181"/>
</g>
<defs>
<clipPath id="clip0">
<rect width="32" height="32" fill="white"/>
</clipPath>
</defs>
</svg>
