<svg width="40" height="40" viewBox="0 0 40 40" fill="none" xmlns="http://www.w3.org/2000/svg">
<path d="M28 0H12C5.37258 0 0 5.37258 0 12V28C0 34.6274 5.37258 40 12 40H28C34.6274 40 40 34.6274 40 28V12C40 5.37258 34.6274 0 28 0Z" fill="#818181"/>
<path d="M26.5 12C27.8807 12 29 10.8807 29 9.5C29 8.11929 27.8807 7 26.5 7L12.5 7C11.1193 7 10 8.11929 10 9.5C10 10.8807 11.1193 12 12.5 12H26.5Z" fill="#3A3A3A"/>
<path d="M26.5 23C27.8807 23 29 21.8807 29 20.5C29 19.1193 27.8807 18 26.5 18H12.5C11.1193 18 10 19.1193 10 20.5C10 21.8807 11.1193 23 12.5 23H26.5Z" fill="#3A3A3A"/>
<path d="M26.5 34C27.8807 34 29 32.8807 29 31.5C29 30.1193 27.8807 29 26.5 29H12.5C11.1193 29 10 30.1193 10 31.5C10 32.8807 11.1193 34 12.5 34H26.5Z" fill="#3A3A3A"/>
</svg>
